{"accessors":[{"bufferView":0,"componentType":5125,"count":13101,"max":[13097.0],"min":[0.0],"type":"SCALAR"},{"bufferView":1,"componentType":5126,"count":13101,"max":[154.25372314453126,440.61981201171877,585.3677978515625],"min":[-154.25372314453126,-2.9824085235595705,-542.120849609375],"type":"VEC3"},{"bufferView":2,"componentType":5126,"count":13101,"max":[1.0,1.0,1.0],"min":[-1.0,-1.0,-1.0],"type":"VEC3"},{"bufferView":3,"componentType":5126,"count":13101,"max":[0.9975833892822266,0.996343731880188],"min":[0.001233816146850586,0.0031130313873291017],"type":"VEC2"},{"bufferView":4,"componentType":5125,"count":18033,"max":[17990.0],"min":[0.0],"type":"SCALAR"},{"bufferView":5,"componentType":5126,"count":18033,"max":[134.6054229736328,244.75833129882813,541.8397827148438],"min":[-134.6054229736328,0.0,-531.8980102539063],"type":"VEC3"},{"bufferView":6,"componentType":5126,"count":18033,"max":[1.0,1.0,0.9998289346694946],"min":[-1.0,-1.0,-0.9998289346694946],"type":"VEC3"},{"bufferView":7,"componentType":5126,"count":18033,"max":[0.9984455108642578,0.9991892576217651],"min":[0.0005614757537841797,0.3446364998817444],"type":"VEC2"},{"bufferView":8,"componentType":5125,"count":588,"max":[584.0],"min":[0.0],"type":"SCALAR"},{"bufferView":9,"componentType":5126,"count":588,"max":[144.40863037109376,447.47137451171877,364.5739440917969],"min":[-144.4086456298828,117.6464614868164,-258.0331726074219],"type":"VEC3"},{"bufferView":10,"componentType":5126,"count":588,"max":[1.0,1.0,1.0],"min":[-1.0,-3.804412926911027e-7,-1.0],"type":"VEC3"},{"bufferView":11,"componentType":5126,"count":588,"max":[0.9909002184867859,0.9956697821617127],"min":[0.005240976810455322,0.004698991775512695],"type":"VEC2"}],"asset":{"generator":"SimLab GLTF","version":"2.0"},"bufferViews":[{"buffer":0,"byteLength":52404,"target":34963},{"buffer":0,"byteLength":157212,"byteOffset":52404,"byteStride":12,"target":34962},{"buffer":0,"byteLength":157212,"byteOffset":209616,"byteStride":12,"target":34962},{"buffer":0,"byteLength":104808,"byteOffset":366828,"byteStride":8,"target":34962},{"buffer":0,"byteLength":72132,"byteOffset":471636,"target":34963},{"buffer":0,"byteLength":216396,"byteOffset":543768,"byteStride":12,"target":34962},{"buffer":0,"byteLength":216396,"byteOffset":760164,"byteStride":12,"target":34962},{"buffer":0,"byteLength":144264,"byteOffset":976560,"byteStride":8,"target":34962},{"buffer":0,"byteLength":2352,"byteOffset":1120824,"target":34963},{"buffer":0,"byteLength":7056,"byteOffset":1123176,"byteStride":12,"target":34962},{"buffer":0,"byteLength":7056,"byteOffset":1130232,"byteStride":12,"target":34962},{"buffer":0,"byteLength":4704,"byteOffset":1137288,"byteStride":8,"target":34962}],"buffers":[{"byteLength":1141992,"uri":"Tailwind.bin"}],"images":[{"mimeType":"image/png","uri":"Textures/Tailwind_Textured_D.png"},{"mimeType":"image/png","uri":"Textures/Tailwind_Textured_N.png"},{"mimeType":"image/png","uri":"Textures/Tailwind_Furniture_D.png"},{"mimeType":"image/png","uri":"Textures/Tailwind_Furniture_N.png"},{"mimeType":"image/png","uri":"Textures/Tailwind_TransAR_D.png"},{"mimeType":"image/png","uri":"Textures/Tailwind_Trans_N.png"}],"materials":[{"name":"Tailwind_Textured_mat","alphaMode":"MASK","doubleSided":true,"normalTexture":{"index":1},"pbrMetallicRoughness":{"baseColorTexture":{"index":0},"roughnessFactor":0.9854999780654907}},{"name":"Tailwind_Furniture_mat","alphaMode":"MASK","doubleSided":true,"normalTexture":{"index":3},"pbrMetallicRoughness":{"baseColorTexture":{"index":2},"roughnessFactor":0.9854999780654907}},{"name":"Tailwind_Trans_mat","alphaMode":"MASK","doubleSided":true,"normalTexture":{"index":5},"pbrMetallicRoughness":{"baseColorTexture":{"index":4},"roughnessFactor":0.9854999780654907}}],"meshes":[{"primitives":[{"attributes":{"NORMAL":2,"POSITION":1,"TEXCOORD_0":3},"indices":0,"material":0,"mode":4}]},{"primitives":[{"attributes":{"NORMAL":6,"POSITION":5,"TEXCOORD_0":7},"indices":4,"material":1,"mode":4}]},{"primitives":[{"attributes":{"NORMAL":10,"POSITION":9,"TEXCOORD_0":11},"indices":8,"material":2,"mode":4}]}],"nodes":[{"children":[1,2,3,4,5],"matrix":[1.0,0.0,0.0,0.0,0.0,4.4896593387466768e-11,-1.0,0.0,0.0,1.0,4.4896593387466768e-11,0.0,0.0,0.0,0.0,1.0]},{"name":"front","rotation":[-0.7071067690849304,0.0,0.0,-0.7071067690849304],"translation":[0.00020167905313428491,-0.10001000016927719,-0.00018159084720537066]},{"name":"persp","rotation":[-0.417170912027359,-0.3664935827255249,-0.5488940477371216,-0.6247929334640503],"translation":[0.10264965146780014,-0.03580981865525246,0.0562707856297493]},{"name":"side","rotation":[-0.5,-0.5,-0.5,-0.5],"translation":[0.12809182703495027,-0.015005599707365036,0.007358195725828409]},{"name":"top","rotation":[0.0,0.0,0.0,-1.0],"translation":[0.0025345066096633674,0.03703140839934349,0.10640677809715271]},{"name":"Tailwind","children":[6],"rotation":[-0.7071067690849304,0.0,0.0,-0.7071067690849304],"scale":[0.009999999776482582,0.009999999776482582,0.009999999776482582]},{"name":"Assembly-2","children":[7,10,13],"rotation":[0.0,0.0,0.0,-1.0]},{"name":"Tailwind","children":[9],"rotation":[0.0,0.0,0.0,-1.0]},{"mesh":0},{"children":[8]},{"name":"Tailwind","children":[12],"rotation":[0.0,0.0,0.0,-1.0]},{"mesh":1},{"children":[11]},{"name":"Tailwind","children":[15],"rotation":[0.0,0.0,0.0,-1.0]},{"mesh":2},{"children":[14]}],"samplers":[{"wrapS":10497,"wrapT":10497}],"scene":0,"scenes":[{"nodes":[0]}],"textures":[{"source":0},{"source":1},{"source":2},{"source":3},{"source":4},{"source":5}]}